<svg width="20" height="21" viewBox="0 0 20 21" fill="none" xmlns="http://www.w3.org/2000/svg">
<path d="M19.2194 9.36658L17.0319 6.78845C16.9798 6.68429 16.8756 6.6322 16.7194 6.6322C16.5631 6.6322 16.4198 6.67137 16.2894 6.7497C16.159 6.82804 16.0938 6.94533 16.0938 7.10158C16.0938 7.25783 16.1458 7.38804 16.25 7.4922L18.2812 9.91408H0.9375C0.78125 9.91408 0.651042 9.96616 0.546875 10.0703C0.442708 10.1745 0.390625 10.3047 0.390625 10.461C0.390625 10.6172 0.442708 10.7605 0.546875 10.891C0.651042 11.0214 0.78125 11.0866 0.9375 11.0866H18.2812L16.25 13.4303C16.1458 13.5345 16.0938 13.6647 16.0938 13.821C16.0938 13.9772 16.1458 14.1074 16.25 14.2116C16.3542 14.3157 16.4844 14.3678 16.6406 14.3678C16.7969 14.3678 16.9271 14.3157 17.0312 14.2116L19.2188 11.6335C19.4792 11.2689 19.6094 10.8782 19.6094 10.4616C19.6094 10.0449 19.4792 9.68033 19.2188 9.36783L19.2194 9.36658Z" fill="#A40731"/>
</svg>
