<svg width="20" height="21" viewBox="0 0 20 21" fill="none" xmlns="http://www.w3.org/2000/svg">
<path d="M0.780624 11.5938L2.96812 14.1719C3.02021 14.276 3.12437 14.3281 3.28062 14.3281C3.43687 14.3281 3.58021 14.289 3.71062 14.2106C3.84104 14.1323 3.90625 14.015 3.90625 13.8587C3.90625 13.7025 3.85417 13.5723 3.75 13.4681L1.71875 11.0462L19.0625 11.0462C19.2188 11.0462 19.349 10.9942 19.4531 10.89C19.5573 10.7858 19.6094 10.6556 19.6094 10.4994C19.6094 10.3431 19.5573 10.1998 19.4531 10.0694C19.349 9.93896 19.2188 9.87375 19.0625 9.87375L1.71875 9.87375L3.75 7.53C3.85417 7.42583 3.90625 7.29562 3.90625 7.13937C3.90625 6.98312 3.85417 6.85292 3.75 6.74875C3.64583 6.64458 3.51562 6.5925 3.35938 6.5925C3.20312 6.5925 3.07292 6.64458 2.96875 6.74875L0.78125 9.32687C0.520834 9.69146 0.390625 10.0821 0.390625 10.4987C0.390625 10.9154 0.520834 11.28 0.78125 11.5925L0.780624 11.5938Z" fill="#1B1918"/>
</svg>
