<svg width="20" height="21" viewBox="0 0 20 21" fill="none" xmlns="http://www.w3.org/2000/svg">
<path d="M19.2194 9.40625L17.0319 6.82812C16.9798 6.72396 16.8756 6.67188 16.7194 6.67188C16.5631 6.67188 16.4198 6.71104 16.2894 6.78937C16.159 6.86771 16.0938 6.985 16.0938 7.14125C16.0938 7.2975 16.1458 7.42771 16.25 7.53188L18.2812 9.95375H0.9375C0.78125 9.95375 0.651042 10.0058 0.546875 10.11C0.442708 10.2142 0.390625 10.3444 0.390625 10.5006C0.390625 10.6569 0.442708 10.8002 0.546875 10.9306C0.651042 11.061 0.78125 11.1263 0.9375 11.1263H18.2812L16.25 13.47C16.1458 13.5742 16.0938 13.7044 16.0938 13.8606C16.0938 14.0169 16.1458 14.1471 16.25 14.2513C16.3542 14.3554 16.4844 14.4075 16.6406 14.4075C16.7969 14.4075 16.9271 14.3554 17.0312 14.2513L19.2188 11.6731C19.4792 11.3085 19.6094 10.9179 19.6094 10.5013C19.6094 10.0846 19.4792 9.72 19.2188 9.4075L19.2194 9.40625Z" fill="white"/>
</svg>
