<svg width="50" height="50" viewBox="0 0 50 50" fill="none" xmlns="http://www.w3.org/2000/svg">
<path d="M41.6991 23.5791C41.295 23.5791 40.898 23.6096 40.5092 23.6657L40.0006 21.7675C40.5533 21.6749 41.1206 21.626 41.6992 21.626C42.5042 21.626 43.3072 21.7201 44.0858 21.9057C44.4624 21.9954 44.8564 21.8543 45.0902 21.5459C47.3583 18.5563 47.4884 16.7737 45.6057 14.4815C43.1758 11.5235 40.9401 10.0036 38.7707 9.83505C37.1455 9.70839 35.5805 10.3405 33.9811 11.766C33.7707 11.9534 33.6516 12.2226 33.6542 12.5045C33.6569 12.7863 33.7813 13.0531 33.9952 13.2365L35.5897 14.6033C35.5246 14.8864 35.4686 15.1538 35.4167 15.4015C35.2833 16.0378 35.1777 16.5387 35.0093 16.954C34.7793 16.82 34.5527 16.6875 34.3302 16.5571C31.053 14.6381 28.465 13.1222 25.8301 13.8514C24.0796 14.3357 22.5436 15.7751 21.0289 18.3599L13.6225 16.2404L13.1651 14.8258C12.6944 13.3695 11.6893 12.5736 10.0022 12.3219L1.625 10.903C1.27354 10.8433 0.917578 10.9802 0.696289 11.2597C0.475 11.5391 0.423633 11.9169 0.562109 12.2454C2.64854 17.191 3.43887 18.4975 6.41709 19.9772L13.6057 23.5487C15.4606 24.4703 16.125 25.1748 16.6965 26.8264L18.1071 30.9033H16.5422C16.057 26.7851 12.5473 23.5791 8.30078 23.5791C3.72373 23.5791 0 27.3028 0 31.8799C0 36.4569 3.72373 40.1807 8.30078 40.1807C12.5474 40.1807 16.0571 36.9747 16.5422 32.8564H18.7829L19.7381 35.6172C19.8742 36.0105 20.2447 36.2744 20.6609 36.2744H30.9988C31.3105 36.2744 31.6035 36.1257 31.7874 35.8739C31.9713 35.6222 32.0239 35.2978 31.9291 35.001C31.6079 33.9943 31.445 32.9443 31.445 31.8799C31.445 27.4864 34.2227 23.7301 38.1139 22.2732L38.6228 24.1726C35.5648 25.3976 33.3981 28.3895 33.3981 31.88C33.3981 36.457 37.1219 40.1808 41.6989 40.1808C46.276 40.1808 49.9997 36.457 49.9997 31.88C49.9997 27.3029 46.2762 23.5791 41.6991 23.5791ZM8.30078 38.2275C4.80068 38.2275 1.95313 35.38 1.95313 31.8799C1.95313 28.3798 4.80068 25.5322 8.30078 25.5322C11.4688 25.5322 14.1021 27.8652 14.5732 30.9033H12.5847C12.1393 28.9488 10.3883 27.4853 8.30078 27.4853C5.87764 27.4853 3.90625 29.4567 3.90625 31.8799C3.90625 34.303 5.87764 36.2744 8.30078 36.2744C10.3883 36.2744 12.1392 34.8109 12.5847 32.8564H14.5732C14.1021 35.8945 11.4688 38.2275 8.30078 38.2275ZM8.30078 32.8564H10.5378C10.1603 33.7178 9.2999 34.3213 8.30078 34.3213C6.95459 34.3213 5.85938 33.2261 5.85938 31.8799C5.85938 30.5337 6.95459 29.4385 8.30078 29.4385C9.2999 29.4385 10.1603 30.042 10.5378 30.9033H8.30078C7.76143 30.9033 7.32422 31.3406 7.32422 31.8799C7.32422 32.4191 7.76143 32.8564 8.30078 32.8564ZM26.351 15.7338C28.1898 15.2251 30.4641 16.5566 33.3433 18.2425C33.42 18.2874 33.498 18.333 33.5756 18.3785C33.4105 18.4591 33.2288 18.5384 33.0257 18.6177L28.3326 20.4499L22.9741 18.9165C24.1093 17.092 25.2194 16.0469 26.351 15.7338ZM31.5578 25.0928H28.3684C27.8291 25.0928 27.3918 25.5301 27.3918 26.0693C27.3918 26.6086 27.8291 27.0459 28.3684 27.0459H30.491C30.22 27.6718 30.0002 28.3245 29.8363 28.9991H26.1714C25.6321 28.9991 25.1948 29.4364 25.1948 29.9757C25.1948 30.5149 25.6321 30.9522 26.1714 30.9522H29.5271C29.5039 31.2585 29.492 31.5678 29.492 31.8799C29.492 32.7039 29.5741 33.5208 29.7369 34.3213H21.3564L18.5422 26.1878C17.7107 23.7847 16.4711 22.7915 14.4746 21.7995L7.28613 18.228C5.26885 17.2258 4.55635 16.4748 3.06973 13.1286L9.68594 14.2493C9.69277 14.2505 9.69951 14.2516 9.70635 14.2525C10.7841 14.4117 11.1002 14.7879 11.3067 15.4266L11.9242 17.3365C12.0243 17.6461 12.272 17.8854 12.5848 17.975L28.1121 22.4184C28.3176 22.4772 28.5369 22.4669 28.7359 22.3892L33.7359 20.4371C36.5899 19.3229 36.9321 17.6915 37.3282 15.8023C37.4147 15.3896 37.5043 14.9629 37.6258 14.5019C37.7214 14.1399 37.6014 13.7552 37.3171 13.5114L36.1692 12.5275C37.0184 11.9588 37.814 11.7205 38.6192 11.7823C40.2081 11.9059 42.0509 13.2311 44.0964 15.7213C44.5808 16.311 44.9676 16.7831 44.9626 17.4616L43.6331 16.9144C43.1339 16.709 42.5636 16.9472 42.3583 17.4457C42.1529 17.9444 42.3909 18.5152 42.8896 18.7205L44.2796 19.2927C44.1675 19.474 44.0408 19.6658 43.8963 19.871C43.1731 19.7393 42.4367 19.6729 41.6989 19.6729C37.478 19.6728 33.7509 21.8267 31.5578 25.0928ZM41.6991 38.2275C38.199 38.2275 35.3515 35.38 35.3515 31.8799C35.3515 29.2929 36.908 27.0638 39.133 26.0761L39.6473 27.9954C38.2553 28.7337 37.3046 30.1975 37.3046 31.8799C37.3046 34.303 39.276 36.2744 41.6991 36.2744C44.1223 36.2744 46.0937 34.303 46.0937 31.8799C46.0937 29.4567 44.1223 27.4853 41.6991 27.4853C41.6437 27.4853 41.5887 27.4875 41.5338 27.4895L41.0192 25.5691C41.2428 25.5452 41.4694 25.5322 41.6992 25.5322C45.1993 25.5322 48.0469 28.3798 48.0469 31.8799C48.0469 35.38 45.1992 38.2275 41.6991 38.2275ZM40.7559 32.1326C40.8728 32.5689 41.2673 32.8567 41.6985 32.8567C41.7821 32.8567 41.8673 32.8459 41.9519 32.8231C42.4729 32.6835 42.782 32.148 42.6424 31.6271L42.0633 29.4657C43.2374 29.6421 44.1405 30.6574 44.1405 31.8799C44.1405 33.2261 43.0453 34.3213 41.6991 34.3213C40.3529 34.3213 39.2577 33.2261 39.2577 31.8799C39.2577 31.1089 39.6173 30.4207 40.1771 29.9729L40.7559 32.1326Z" fill="#42403F"/>
<path d="M23.973 25.0927H23.9724C23.433 25.0927 22.9961 25.53 22.9961 26.0692C22.9961 26.6085 23.4337 27.0458 23.973 27.0458C24.5124 27.0458 24.9496 26.6085 24.9496 26.0692C24.9496 25.53 24.5124 25.0927 23.973 25.0927Z" fill="#42403F"/>
</svg>
