<svg width="50" height="50" viewBox="0 0 50 50" fill="none" xmlns="http://www.w3.org/2000/svg">
<path d="M10.682 32.1453C10.1889 32.1453 9.78912 32.5451 9.78912 33.0382C9.78912 33.5115 9.4043 33.8966 8.93119 33.8966C8.45787 33.8966 8.07282 33.5115 8.07282 33.0382C8.07282 32.5651 8.45787 32.1802 8.93119 32.1802C9.42427 32.1802 9.82405 31.7804 9.82405 31.2873C9.82405 30.7942 9.42427 30.3945 8.93119 30.3945C7.47327 30.3945 6.28711 31.5804 6.28711 33.0382C6.28711 34.4961 7.47327 35.6823 8.93119 35.6823C10.3889 35.6823 11.5748 34.4961 11.5748 33.0382C11.5748 32.5451 11.1751 32.1453 10.682 32.1453Z" fill="#42403F"/>
<path d="M42.8656 32.1453C42.3725 32.1453 41.9727 32.5451 41.9727 33.0382C41.9727 33.5115 41.5879 33.8966 41.1148 33.8966C40.6415 33.8966 40.2564 33.5115 40.2564 33.0382C40.2564 32.5651 40.6415 32.1802 41.1148 32.1802C41.6079 32.1802 42.0076 31.7804 42.0076 31.2873C42.0076 30.7942 41.6079 30.3945 41.1148 30.3945C39.6569 30.3945 38.4707 31.5804 38.4707 33.0382C38.4707 34.4961 39.6569 35.6823 41.1148 35.6823C42.5725 35.6823 43.7584 34.4961 43.7584 33.0382C43.7584 32.5451 43.3587 32.1453 42.8656 32.1453Z" fill="#42403F"/>
<path d="M46.4286 11.6018H3.57143C1.60212 11.6018 0 13.204 0 15.1733V29.7728C0 32.2166 2.06931 33.3749 3.62489 33.778C3.98661 36.3844 6.22835 38.3982 8.9327 38.3982C11.2473 38.3982 13.2235 36.9226 13.9714 34.8627H36.077C36.8251 36.9226 38.8018 38.3982 41.1169 38.3982C43.4315 38.3982 45.4077 36.9226 46.1556 34.8627H49.1071C49.6002 34.8627 50 34.4629 50 33.9698V15.1733C50 13.204 48.3979 11.6018 46.4286 11.6018ZM48.2143 24.0783H44.6842C44.1818 24.0783 43.7732 23.6696 43.7732 23.1673V16.094H48.2143V24.0783ZM8.9327 36.6123C7.03214 36.6123 5.47377 35.1211 5.36496 33.2474C5.37333 33.2127 5.38025 33.1775 5.38449 33.1411C5.39699 33.0336 5.38884 32.9287 5.36484 32.8293C5.47344 30.9555 7.03192 29.4642 8.9327 29.4642C10.9029 29.4642 12.5059 31.0675 12.5059 33.038C12.5059 35.0089 10.9029 36.6123 8.9327 36.6123ZM19.7079 16.094H29.4945V24.0783H19.7079V16.094ZM17.9222 24.0783H6.26931C5.76696 24.0783 5.35837 23.6696 5.35837 23.1673V16.094H17.9222V24.0783ZM39.3558 16.094V23.2043C39.3558 23.6862 38.9637 24.0783 38.4818 24.0783H31.2802V16.094H39.3558ZM29.4945 25.864V33.0768H19.7079V25.864H29.4945ZM41.1169 36.6123C39.146 36.6123 37.5425 35.0089 37.5425 33.038C37.5425 31.0675 39.146 29.4642 41.1169 29.4642C43.0871 29.4642 44.6901 31.0675 44.6901 33.038C44.6901 35.0089 43.0872 36.6123 41.1169 36.6123ZM46.4748 33.0768C46.4749 33.0639 46.4758 33.0511 46.4758 33.038C46.4758 30.0828 44.0718 27.6785 41.1169 27.6785C38.1614 27.6785 35.7568 30.0828 35.7568 33.038C35.7568 33.0511 35.7577 33.0639 35.7578 33.0768H31.2802V25.864H38.4818C39.9484 25.864 41.1415 24.6709 41.1415 23.2043V15.2012C41.1415 14.7081 40.7417 14.3083 40.2487 14.3083H4.46551C3.97243 14.3083 3.57266 14.7081 3.57266 15.2012V23.1673C3.57266 24.6543 4.78237 25.864 6.26931 25.864H17.9222V33.0768H14.2906C14.2907 33.0639 14.2916 33.0511 14.2916 33.038C14.2916 30.0828 11.8876 27.6785 8.9327 27.6785C6.35759 27.6785 4.20134 29.504 3.68884 31.9286C2.86652 31.6464 1.78571 31.0354 1.78571 29.7727V15.1733C1.78571 14.1886 2.58683 13.3876 3.57143 13.3876H46.4286C47.0994 13.3876 47.6845 13.7598 47.9896 14.3083H42.8804C42.3873 14.3083 41.9875 14.7081 41.9875 15.2012V23.1673C41.9875 24.6543 43.1972 25.864 44.6842 25.864H48.2143V26.7897H47.345C46.8519 26.7897 46.4521 27.1894 46.4521 27.6825C46.4521 28.1756 46.8519 28.5754 47.345 28.5754H48.2143V33.0768H46.4748Z" fill="#42403F"/>
</svg>
