<svg width="50" height="50" viewBox="0 0 50 50" fill="none" xmlns="http://www.w3.org/2000/svg">
<g clip-path="url(#clip0_711_1843)">
<path d="M20.748 22.5163H24.0815V24.1833H20.748V22.5163Z" fill="#1B1918"/>
<path d="M49.2023 20.0247L43.5413 19.2163C42.509 18.5821 41.4378 18.0145 40.3333 17.5163C36.6859 15.8642 32.7271 15.0117 28.7226 15.0161H27.7392C23.0134 15.0195 18.3632 16.2053 14.2125 18.4655L11.3556 20.024C8.01127 20.0617 4.73142 20.9511 1.82595 22.6073C0.645178 23.2845 -0.0839029 24.5409 -0.0859375 25.9018V30.8504C-0.0859375 31.3109 0.287081 31.6839 0.747589 31.6839H3.5459C4.45607 34.2804 7.29881 35.6477 9.89536 34.7376C11.3247 34.2367 12.4482 33.1129 12.949 31.6839H35.2148C36.125 34.2804 38.9677 35.6477 41.5643 34.7376C42.9933 34.2367 44.1171 33.1129 44.6179 31.6839H44.917C45.0232 31.6839 45.1283 31.6639 45.227 31.6245L47.9263 30.5414C49.1321 30.064 49.9219 28.8968 49.9175 27.6004V20.8497C49.9175 20.4353 49.6126 20.0837 49.2023 20.0247ZM11.5139 30.6839C11.1453 32.4876 9.38432 33.6511 7.58061 33.2824C5.77655 32.9138 4.61308 31.1528 4.98169 29.3488C5.35064 27.5451 7.11162 26.3816 8.91533 26.7502C10.4674 27.0673 11.5817 28.4329 11.5814 30.0172C11.5814 30.241 11.5587 30.4645 11.5139 30.6839ZM26.5825 30.0172H13.2481C13.2481 27.2555 11.0097 25.0167 8.24797 25.0167C5.48628 25.0167 3.24749 27.2555 3.24749 30.0172H1.58078V25.9018C1.58179 25.1384 1.99076 24.4334 2.65337 24.0543C5.37302 22.5015 8.45008 21.6843 11.5814 21.6833H26.5825V30.0172ZM26.5825 20.0166H14.8501L15.0108 19.9287C18.5738 17.9924 22.5315 16.8947 26.5825 16.7194V20.0166ZM28.2492 16.6828H28.7209C32.0794 16.6791 35.4074 17.3166 38.5269 18.5614L37.0718 20.0166H28.2492V16.6828ZM43.1828 30.6839C42.8142 32.4876 41.0532 33.6511 39.2492 33.2824C37.4455 32.9138 36.282 31.1528 36.6506 29.3488C37.0192 27.5451 38.7805 26.3816 40.5843 26.7502C42.1363 27.0673 43.2507 28.4329 43.2503 30.0172C43.2503 30.241 43.2276 30.4645 43.1828 30.6839ZM48.2508 22.5165H45.7506V24.1835H48.2508V27.6004C48.2528 28.2145 47.8785 28.7672 47.3074 28.9927L44.917 29.9527C44.917 29.8761 44.9072 29.8001 44.9021 29.7235C44.897 29.6469 44.8953 29.557 44.8872 29.4736C44.8787 29.3902 44.8621 29.3067 44.8489 29.2237C44.8353 29.1402 44.8255 29.0568 44.8089 28.9812C44.7922 28.9052 44.7678 28.8211 44.7461 28.7418C44.7244 28.6628 44.7078 28.5827 44.6827 28.5051C44.658 28.4278 44.6278 28.3535 44.5996 28.2776C44.5711 28.2019 44.5454 28.1236 44.5162 28.0483C44.487 27.9734 44.4477 27.9052 44.4128 27.8343C44.3778 27.7635 44.3436 27.6858 44.3046 27.6143C44.2653 27.5427 44.2212 27.4817 44.1835 27.4152C44.1462 27.3484 44.1005 27.2724 44.053 27.2043C44.0052 27.1358 43.9611 27.0819 43.9153 27.0201C43.8695 26.9584 43.8176 26.8859 43.7644 26.8218C43.7112 26.7577 43.6613 26.7075 43.6094 26.6549C43.5579 26.6027 43.5002 26.5318 43.4429 26.4735C43.3853 26.4152 43.3287 26.3691 43.2713 26.3175C43.2137 26.266 43.152 26.2049 43.0886 26.1507C43.0255 26.0968 42.9611 26.055 42.898 26.0076C42.8346 25.9601 42.7712 25.9092 42.7047 25.8648C42.6379 25.8207 42.5629 25.7817 42.4914 25.7349C42.4195 25.6881 42.3612 25.6515 42.2937 25.6159C42.2262 25.58 42.1421 25.5423 42.0655 25.5057C41.9888 25.4691 41.9288 25.4365 41.8579 25.4067C41.7871 25.3765 41.6911 25.3449 41.608 25.3151C41.5246 25.2849 41.4703 25.2615 41.3995 25.2391C41.3045 25.21 41.2072 25.189 41.1102 25.1649C41.0468 25.15 40.9861 25.13 40.922 25.1167C40.8196 25.0957 40.7145 25.0842 40.6104 25.0689C40.5486 25.0608 40.4896 25.0472 40.4279 25.0414C40.2611 25.0248 40.0946 25.0157 39.9196 25.0157C37.1589 25.0184 34.9218 27.2555 34.9191 30.0162H28.2496V21.6829H37.4166C37.6377 21.6829 37.8497 21.5951 38.0057 21.4388L40.1668 19.2776C41.0739 19.7093 41.9559 20.1919 42.8088 20.7229C42.9071 20.7843 43.017 20.8246 43.132 20.8413L48.2508 21.572V22.5165Z" fill="#1B1918"/>
</g>
<defs>
<clipPath id="clip0_711_1843">
<rect width="50" height="50" fill="white"/>
</clipPath>
</defs>
</svg>
