<svg width="50" height="50" viewBox="0 0 50 50" fill="none" xmlns="http://www.w3.org/2000/svg">
<g clip-path="url(#clip0_715_1326)">
<path d="M13.5586 12.5909H21.1859C21.6543 12.5909 22.033 12.2122 22.033 11.7437C22.033 11.2753 21.6543 10.8961 21.1859 10.8961H13.5586C13.0901 10.8961 12.7109 11.2753 12.7109 11.7437C12.7109 12.2122 13.0901 12.5909 13.5586 12.5909Z" fill="#42403F"/>
<path d="M18.6445 14.2858C18.6445 14.7542 19.0233 15.1334 19.4917 15.1334H31.3562C31.8246 15.1334 32.2038 14.7542 32.2038 14.2858C32.2038 13.8174 31.8246 13.4386 31.3562 13.4386H19.4917C19.0233 13.4386 18.6445 13.8174 18.6445 14.2858Z" fill="#42403F"/>
<path d="M4.23796 27.8454H31.3566C31.825 27.8454 32.2042 27.4662 32.2042 26.9978V22.7606C32.2042 22.2921 31.825 21.9129 31.3566 21.9129H5.30138C4.91248 21.9129 4.574 22.1772 4.47993 22.5545L3.41602 26.7917C3.35249 27.0448 3.40971 27.313 3.57022 27.5191C3.73073 27.7252 3.97755 27.8454 4.23796 27.8454ZM13.56 26.1502V23.6077H22.0345V26.1502H13.56ZM30.5094 26.1502H23.7298V23.6077H30.5094V26.1502ZM5.96281 23.6077H11.8653V26.1502H5.32466L5.96281 23.6077Z" fill="#42403F"/>
<path d="M34.1397 27.5895C34.2993 27.7534 34.518 27.8455 34.7464 27.8455H40.6784C41.0275 27.8455 41.3413 27.6307 41.4678 27.3058C41.5949 26.9804 41.5095 26.6104 41.252 26.3748L36.6511 22.1405C36.495 21.9964 36.2903 21.9164 36.0779 21.9164H34.8225C34.5485 21.8999 34.2537 22.0149 34.0743 22.2471C33.9055 22.4673 33.8565 22.7529 33.9361 23.0128C33.9632 23.4958 33.9404 25.3404 33.8987 26.9761C33.8929 27.2045 33.9797 27.4256 34.1397 27.5895ZM35.6531 23.6112H35.7477L38.5059 26.1503H35.6148C35.6435 25.0083 35.6599 24.1955 35.6531 23.6112Z" fill="#42403F"/>
<path d="M50 31.2351C50 31.2186 49.9913 31.205 49.9908 31.189C49.9428 30.0068 49.3308 28.9342 48.3227 28.2994L45.1809 26.3243L37.1928 18.7911C36.43 18.072 35.4325 17.6758 34.3842 17.6758H3.09766C2.70876 17.6758 2.36931 17.9405 2.27524 18.3188L0.0247309 27.3587C0.00824362 27.4256 0 27.4944 0 27.5633V33.7775C0 34.2154 0.334109 34.582 0.770536 34.6218L8.5564 35.3332C8.77364 37.4459 10.5431 39.1053 12.7117 39.1053C14.8332 39.1053 16.574 37.5182 16.8534 35.4723H35.6891C35.9684 37.5182 37.7092 39.1053 39.8303 39.1053C41.9518 39.1053 43.6927 37.5177 43.972 35.4718L44.7124 35.4709L47.202 35.3142C48.7707 35.2148 50 33.906 50 32.3334V31.336C50 31.3103 49.9956 31.285 49.9952 31.2593C49.9956 31.2506 50 31.2438 50 31.2351ZM3.75958 19.3706H34.3842C34.9981 19.3706 35.5834 19.6024 36.0295 20.0247L44.0777 27.6142C44.1184 27.6525 44.1621 27.6855 44.2086 27.7156L47.4202 29.7348C47.685 29.9011 47.895 30.1275 48.0458 30.3875H1.69479V27.6675L3.75958 19.3706ZM35.8059 33.7775H16.736C16.5556 33.1374 16.2341 32.5599 15.7962 32.0827H36.7457C36.3083 32.5599 35.9868 33.137 35.8059 33.7775ZM1.69479 32.0827H9.6271C9.21977 32.5269 8.91524 33.0584 8.72806 33.6466L1.69479 33.0036V32.0827ZM12.7117 37.4105C11.3316 37.4105 10.2085 36.2875 10.2085 34.9069C10.2085 33.5273 11.3316 32.4047 12.7117 32.4047C14.0922 32.4047 15.2153 33.5278 15.2153 34.9069C15.2153 36.2875 14.0922 37.4105 12.7117 37.4105ZM39.8303 37.4105C38.4502 37.4105 37.3271 36.2875 37.3271 34.9069C37.3271 33.5273 38.4502 32.4047 39.8303 32.4047C41.2108 32.4047 42.3339 33.5278 42.3339 34.9069C42.3339 36.2875 41.2108 37.4105 39.8303 37.4105ZM47.0953 33.6228L44.6596 33.777H43.8546C43.6742 33.137 43.3527 32.5599 42.9148 32.0823H48.3052V32.3334C48.3052 33.0133 47.7737 33.5797 47.0953 33.6228Z" fill="#42403F"/>
<path d="M13.6275 34.9074C13.6275 35.4122 13.2182 35.8215 12.7129 35.8215C12.2081 35.8215 11.7988 35.4122 11.7988 34.9074C11.7988 34.4026 12.2081 33.9933 12.7129 33.9933C13.2182 33.9933 13.6275 34.4026 13.6275 34.9074Z" fill="#42403F"/>
<path d="M40.7447 34.9074C40.7447 35.4122 40.3354 35.8215 39.8301 35.8215C39.3253 35.8215 38.916 35.4122 38.916 34.9074C38.916 34.4026 39.3253 33.9933 39.8301 33.9933C40.3354 33.9933 40.7447 34.4026 40.7447 34.9074Z" fill="#42403F"/>
</g>
<defs>
<clipPath id="clip0_715_1326">
<rect width="50" height="50" fill="white"/>
</clipPath>
</defs>
</svg>
