<svg width="50" height="50" viewBox="0 0 50 50" fill="none" xmlns="http://www.w3.org/2000/svg">
<path d="M10.682 33.9451C10.1889 33.9451 9.78912 34.3449 9.78912 34.838C9.78912 35.3113 9.4043 35.6963 8.93119 35.6963C8.45787 35.6963 8.07282 35.3113 8.07282 34.838C8.07282 34.3647 8.45787 33.9798 8.93119 33.9798C9.42427 33.9798 9.82405 33.58 9.82405 33.0869C9.82405 32.5939 9.42427 32.1941 8.93119 32.1941C7.47327 32.1941 6.28711 33.3801 6.28711 34.838C6.28711 36.2959 7.47327 37.482 8.93119 37.482C10.3889 37.482 11.5748 36.2959 11.5748 34.838C11.5748 34.3448 11.1751 33.9451 10.682 33.9451Z" fill="#42403F"/>
<path d="M42.8656 33.9451C42.3725 33.9451 41.9727 34.3449 41.9727 34.838C41.9727 35.3113 41.5879 35.6963 41.1148 35.6963C40.6415 35.6963 40.2564 35.3113 40.2564 34.838C40.2564 34.3647 40.6415 33.9798 41.1148 33.9798C41.6079 33.9798 42.0076 33.58 42.0076 33.0869C42.0076 32.5939 41.6079 32.1941 41.1148 32.1941C39.6569 32.1941 38.4707 33.3801 38.4707 34.838C38.4707 36.2959 39.6569 37.482 41.1148 37.482C42.5725 37.482 43.7584 36.2959 43.7584 34.838C43.7584 34.3448 43.3587 33.9451 42.8656 33.9451Z" fill="#42403F"/>
<path d="M49.8761 22.5268L46.453 16.7269C45.279 14.7681 44.1712 13.6243 41.9539 13.4308C41.8813 13.4118 41.8048 13.4015 41.726 13.4015H34.8772V11.5879C34.8772 10.6033 34.0761 9.80215 33.0915 9.80215H1.78571C0.801116 9.80215 0 10.6033 0 11.5879V33.9451C0 34.9298 0.801116 35.7308 1.78571 35.7308H3.64855C4.07522 38.2625 6.28159 40.1977 8.9327 40.1977C11.5833 40.1977 13.7892 38.2625 14.2157 35.7308H35.8327C36.2594 38.2625 38.4657 40.1977 41.1169 40.1977C43.7674 40.1977 45.9733 38.2625 46.3999 35.7308H49.1071C49.6002 35.7308 50 35.3311 50 34.838V22.9806C50 22.821 49.9571 22.6642 49.8761 22.5268ZM46.4758 25.948C46.4758 25.4557 46.8763 25.0552 47.3686 25.0552H48.2143V26.8129H46.4758V25.948ZM47.6788 22.3172H39.4767C39.4179 22.3051 39.3569 22.2986 39.2944 22.2986C38.7922 22.2986 38.3836 21.89 38.3836 21.3876V17.81H45.0186L47.6788 22.3172ZM1.78571 11.5879H33.0915V33.9451H14.2158C13.7895 31.4134 11.5834 29.4783 8.9327 29.4783C6.28136 29.4783 4.07489 31.4135 3.64844 33.9451H1.78571V11.5879ZM8.9327 38.412C6.96183 38.412 5.35848 36.8085 5.35848 34.8376C5.35848 32.8671 6.96183 31.2639 8.9327 31.2639C10.9029 31.2639 12.5059 32.8671 12.5059 34.8376C12.5059 36.8085 10.9029 38.412 8.9327 38.412ZM41.1169 38.412C39.146 38.412 37.5426 36.8085 37.5426 34.8376C37.5426 32.8671 39.146 31.2639 41.1169 31.2639C43.0871 31.2639 44.6901 32.8671 44.6901 34.8376C44.6901 36.8085 43.0872 38.412 41.1169 38.412ZM46.4 33.9451C45.9737 31.4134 43.7675 29.4783 41.1169 29.4783C38.4655 29.4783 36.259 31.4135 35.8326 33.9451H34.8772V15.1872H41.2471C42.3866 15.1872 43.0982 15.4274 43.726 16.0243H37.4907C36.9977 16.0243 36.5979 16.424 36.5979 16.9171V21.3876C36.5979 22.8001 37.6894 23.9625 39.0733 24.0753C39.1441 24.0933 39.2182 24.1028 39.2944 24.1028H45.4296C44.9719 24.5836 44.6901 25.2333 44.6901 25.9479V27.7056C44.6901 28.1987 45.0898 28.5985 45.5829 28.5985H48.2143V33.945H46.4V33.9451Z" fill="#42403F"/>
<path d="M4.50223 15.1872H30.3766C30.8696 15.1872 31.2694 14.7874 31.2694 14.2943C31.2694 13.8013 30.8696 13.4015 30.3766 13.4015H4.50223C4.00915 13.4015 3.60938 13.8013 3.60938 14.2943C3.60938 14.7874 4.00915 15.1872 4.50223 15.1872Z" fill="#42403F"/>
</svg>
