<svg width="50" height="50" viewBox="0 0 50 50" fill="none" xmlns="http://www.w3.org/2000/svg">
<g clip-path="url(#clip0_715_1335)">
<path d="M48.4333 23.6329L44.7438 21.1734L40.5202 11.9103C39.9586 10.778 38.8023 10.0635 37.5384 10.0676H3.24749C1.40648 10.0676 -0.0859375 11.56 -0.0859375 13.4014V35.9028C-0.0859375 36.363 0.287081 36.736 0.747589 36.736H5.21364C6.1238 39.3329 8.96654 40.6999 11.5631 39.7897C12.9921 39.2888 14.1159 38.165 14.6168 36.736H33.5488C34.459 39.3329 37.3017 40.6999 39.8986 39.7897C41.3276 39.2888 42.4511 38.165 42.9519 36.736H49.084C49.5445 36.736 49.9175 36.363 49.9175 35.9028V25.9022C49.8816 24.929 49.3105 24.0558 48.4333 23.6329ZM42.7352 20.9017H36.5831C36.123 20.9017 35.75 20.5287 35.75 20.0682V15.9013C35.75 15.4411 36.123 15.0681 36.5831 15.0681H39.8186L42.7352 20.9017ZM13.181 35.736C12.8124 37.5397 11.051 38.7032 9.24732 38.3346C7.44361 37.966 6.28013 36.205 6.64874 34.4013C7.01735 32.5972 8.77834 31.4337 10.5821 31.8027C12.1341 32.1198 13.2488 33.4853 13.2485 35.0693C13.2481 35.2935 13.2257 35.5166 13.181 35.736ZM41.5161 35.736C41.1475 37.5397 39.3865 38.7032 37.5825 38.3346C35.7788 37.966 34.6153 36.205 34.9839 34.4013C35.3525 32.5972 37.1135 31.4337 38.9176 31.8027C40.4697 32.1198 41.584 33.4853 41.5836 35.0693C41.5836 35.2935 41.5609 35.5166 41.5161 35.736ZM48.2508 31.7359H44.9174V33.4026H48.2508V35.0693H43.2503C43.2503 32.308 41.0116 30.0692 38.2502 30.0692C35.4885 30.0692 33.2497 32.308 33.2497 35.0693H14.9152C14.9152 32.308 12.6764 30.0692 9.91469 30.0692C7.15334 30.0692 4.91455 32.308 4.91455 35.0693H1.58078V33.4026H4.08102V31.7359H1.58078V25.9022H32.4165V24.2352H1.58078V13.4014C1.58078 12.4807 2.32715 11.7343 3.24783 11.7343H37.5384C38.1603 11.7299 38.7314 12.0758 39.0159 12.6285L39.3676 13.4014H36.5835C35.2026 13.4014 34.0832 14.5204 34.0832 15.9013V20.0682C34.0832 21.4491 35.2026 22.5684 36.5835 22.5684H43.8339L47.5109 25.0195C47.5326 25.0338 47.5475 25.0538 47.5675 25.0687H45.7506C45.2904 25.0687 44.9174 25.4417 44.9174 25.9022V29.2356C44.9174 29.6958 45.2904 30.0688 45.7506 30.0688H48.2508V31.7359ZM48.2508 28.4021H46.5841V26.7354H48.2508V28.4021Z" fill="#42403F"/>
<path d="M34.084 24.235H38.2509V25.902H34.084V24.235Z" fill="#42403F"/>
<path d="M15.748 31.7357H32.4159V33.4024H15.748V31.7357Z" fill="#42403F"/>
</g>
<defs>
<clipPath id="clip0_715_1335">
<rect width="50" height="50" fill="white"/>
</clipPath>
</defs>
</svg>
