<svg width="50" height="50" viewBox="0 0 50 50" fill="none" xmlns="http://www.w3.org/2000/svg">
<path d="M3.86914 40.2045H3.86133C3.45684 40.2045 3.13281 40.5324 3.13281 40.9369C3.13281 41.3414 3.46465 41.6694 3.86914 41.6694C4.27364 41.6694 4.60157 41.3414 4.60157 40.9369C4.60157 40.5324 4.27374 40.2045 3.86914 40.2045Z" fill="#42403F"/>
<path d="M28.9219 40.2045H28.9141C28.5096 40.2045 28.1855 40.5324 28.1855 40.9369C28.1855 41.3414 28.5174 41.6694 28.9219 41.6694C29.3264 41.6694 29.6543 41.3414 29.6543 40.9369C29.6543 40.5324 29.3264 40.2045 28.9219 40.2045Z" fill="#42403F"/>
<path d="M22.6522 40.2045H10.127C9.72246 40.2045 9.39453 40.5324 9.39453 40.9369C9.39453 41.3414 9.72246 41.6694 10.127 41.6694H22.6522C23.0567 41.6694 23.3847 41.3414 23.3847 40.9369C23.3847 40.5324 23.0567 40.2045 22.6522 40.2045Z" fill="#42403F"/>
<path d="M11.6911 28.4619H6.99414C6.58965 28.4619 6.26172 28.7898 6.26172 29.1943C6.26172 29.5988 6.58965 29.9267 6.99414 29.9267H11.6911C12.0956 29.9267 12.4236 29.5988 12.4236 29.1943C12.4236 28.7898 12.0956 28.4619 11.6911 28.4619Z" fill="#42403F"/>
<path d="M48.751 32.839L41.5802 6.31848C41.4719 5.91769 41.1999 5.57511 40.834 5.37882C40.4682 5.18253 40.0324 5.14513 39.6383 5.27638L38.568 5.63322C37.9903 5.8257 37.5854 6.3424 37.5366 6.94944L37.3345 9.46498L23.8899 14.9021C23.1471 15.2073 22.589 15.8195 22.3586 16.5818L20.8936 21.4297C20.1488 21.5247 19.5706 22.1611 19.5706 22.9314V25.3307H5.42943C4.16223 25.3307 3.13137 26.3617 3.13137 27.6288V33.1086C3.13137 34.3758 4.16233 35.4066 5.42943 35.4066H7.82827V37.0731H3.86369C1.73331 37.073 0 38.8063 0 40.9367C0 43.0672 1.73331 44.8005 3.86369 44.8005H28.9142C28.9147 44.8005 28.9151 44.8004 28.9155 44.8004C28.9164 44.8004 28.9173 44.8005 28.9181 44.8005C31.0486 44.8005 32.7818 43.0672 32.7818 40.9367C32.7818 38.8063 31.0485 37.0731 28.9181 37.0731C28.9173 37.0731 28.9164 37.0732 28.9155 37.0732C28.915 37.0732 28.9146 37.0731 28.9142 37.0731H24.9497V35.4066H27.3485C28.1841 35.4066 28.8637 34.7269 28.8637 33.8914V30.3219C28.8637 30.0219 28.82 29.7242 28.7338 29.4368L26.6448 22.4731L27.3915 19.3804L34.6594 15.8503C35.0233 15.6735 35.1749 15.2353 34.9982 14.8715C34.8215 14.5077 34.3834 14.3559 34.0193 14.5327L26.4414 18.2134C26.2451 18.3087 26.1014 18.4867 26.0498 18.6987L25.3876 21.4163H22.4279L23.7608 17.0056C23.8631 16.6671 24.113 16.3943 24.4427 16.2589L38.746 10.4746C38.9425 10.3951 39.1582 10.3968 39.3534 10.4796C39.5485 10.5623 39.6997 10.7162 39.7792 10.9127C39.9347 11.2973 39.7632 11.7418 39.3903 11.9241L36.7767 13.1935C36.4128 13.3703 36.2612 13.8085 36.4379 14.1723C36.6147 14.5362 37.053 14.688 37.4167 14.5111L37.8821 14.2851L43.7796 31.5939C43.4677 31.5974 43.1918 31.7976 43.0929 32.0941L40.9114 38.6392H39.8334C39.4289 38.6392 39.101 38.9671 39.101 39.3716C39.101 39.7761 39.4289 40.104 39.8334 40.104H45.7446C48.091 40.104 50 38.1951 50 35.8486C50.0003 34.6741 49.5224 33.6098 48.751 32.839ZM3.86369 43.3357C2.54103 43.3357 1.46485 42.2595 1.46485 40.9367C1.46485 39.614 2.54103 38.5379 3.86369 38.5379C5.18636 38.5379 6.26254 39.6141 6.26254 40.9367C6.26254 42.2594 5.18646 43.3357 3.86369 43.3357ZM28.9182 38.5378C30.241 38.5378 31.3171 39.614 31.3171 40.9367C31.3171 42.2593 30.2409 43.3356 28.9182 43.3356C27.5956 43.3356 26.5194 42.2594 26.5194 40.9367C26.5194 39.6139 27.5955 38.5378 28.9182 38.5378ZM25.8927 38.5378C25.3687 39.1974 25.0544 40.0308 25.0544 40.9367C25.0544 41.8426 25.3687 42.676 25.8927 43.3356H6.8892C7.41323 42.676 7.72749 41.8426 7.72749 40.9367C7.72749 40.0308 7.41323 39.1973 6.8892 38.5378H25.8927ZM27.3992 33.8913H27.399C27.399 33.9191 27.3764 33.9417 27.3486 33.9417H13.2577C12.8532 33.9417 12.5253 34.2696 12.5253 34.6741C12.5253 35.0786 12.8532 35.4065 13.2577 35.4065H23.4849V37.073H9.29312V35.4065H10.1263C10.5308 35.4065 10.8588 35.0786 10.8588 34.6741C10.8588 34.2696 10.5308 33.9417 10.1263 33.9417H5.42943C4.96995 33.9417 4.59622 33.5679 4.59622 33.1085V27.6287C4.59622 27.1692 4.97005 26.7955 5.42943 26.7955H19.5708V28.5459C19.5708 29.1597 19.8099 29.7368 20.244 30.1709L21.6753 31.6022C22.1094 32.0363 22.6865 32.2754 23.3003 32.2754H27.3992V33.8913ZM25.2005 22.8809C25.2226 22.8809 25.2425 22.8956 25.2489 22.9168L27.3309 29.8575C27.3761 30.0083 27.3991 30.1645 27.3991 30.3218V30.8104H23.3002C23.0777 30.8104 22.8685 30.7237 22.7111 30.5664L21.2797 29.135C21.1224 28.9776 21.0357 28.7684 21.0357 28.5459V22.9313C21.0357 22.9034 21.0582 22.8809 21.0861 22.8809H25.2005ZM39.2101 13.6397L40.0321 13.2405C41.0946 12.7213 41.5801 11.4574 41.1374 10.3631C40.9113 9.80385 40.4809 9.36615 39.9255 9.1306C39.5789 8.98363 39.2095 8.9264 38.8449 8.95912L38.9969 7.06653C38.9986 7.04631 39.012 7.02922 39.0312 7.02278L40.1015 6.66594C40.1067 6.66418 40.1221 6.65901 40.1414 6.66936C40.1605 6.67961 40.1646 6.69485 40.1662 6.70061L46.9432 31.7656C46.5629 31.6537 46.161 31.5927 45.7449 31.5927H45.3271L39.2101 13.6397ZM45.7449 38.6386H42.4557L44.316 33.0576H45.7449C47.2836 33.0576 48.5354 34.3094 48.5354 35.8481C48.5354 37.3868 47.2837 38.6386 45.7449 38.6386Z" fill="#42403F"/>
</svg>
