<svg width="50" height="50" viewBox="0 0 50 50" fill="none" xmlns="http://www.w3.org/2000/svg">
<g clip-path="url(#clip0_93_2219)">
<path d="M33.6167 39.6414H18.3106C17.8216 39.6414 17.4258 39.2456 17.4258 38.7571C17.4258 38.2681 17.8216 37.8723 18.3106 37.8723H33.6167C34.1057 37.8723 34.5015 38.2681 34.5015 38.7571C34.5015 39.2456 34.1057 39.6414 33.6167 39.6414Z" fill="#42403F"/>
<path d="M45.693 31.3863C45.242 31.3863 44.8568 31.0431 44.8138 30.585L44.3263 25.4738C38.713 21.0015 22.6932 22.4088 22.5287 22.424C22.4988 22.4275 22.4684 22.426 22.4381 22.4275L6.70274 22.2483C4.73968 22.2519 2.87433 23.3432 1.95911 25.0795L4.64654 27.483C5.01 27.8085 5.04138 28.3678 4.71539 28.7323C4.38939 29.0967 3.83156 29.1271 3.46658 28.8011L0.294715 25.9649C0.020353 25.7194 -0.0732946 25.3291 0.0598369 24.9859C1.1097 22.2812 3.74803 20.4791 6.64402 20.4791H6.72349L22.4143 20.6578C23.6109 20.5525 39.9233 19.2111 45.7588 24.3668C45.9274 24.5156 46.0327 24.7221 46.0535 24.9459L46.5748 30.4179C46.6209 30.9044 46.2645 31.3362 45.7781 31.3822C45.7492 31.3853 45.7209 31.3863 45.693 31.3863V31.3863Z" fill="#42403F"/>
<path d="M10.9502 45.1207C10.6566 45.1207 10.3792 44.9749 10.2132 44.7258C9.87709 44.2191 9.06767 44.1877 8.69257 44.6868C8.48858 44.9597 8.14689 45.0867 7.80976 45.024C6.37366 44.7339 5.04488 44.1245 3.85985 43.2113C3.62649 43.0316 3.49792 42.7481 3.51665 42.4545C3.53386 42.1806 3.44072 41.926 3.25342 41.7372C3.07625 41.558 2.86263 41.4608 2.57157 41.4664C2.566 41.4664 2.56043 41.4664 2.55436 41.4664C2.26582 41.4664 1.9945 41.3257 1.82846 41.0882C0.982595 39.8759 0.422735 38.456 0.208611 36.9804C0.168621 36.7081 0.257712 36.4337 0.449563 36.2363C0.621673 36.0601 0.715826 35.8293 0.715826 35.5873C0.715826 35.3444 0.621673 35.114 0.449563 34.9374C0.257712 34.741 0.168621 34.4661 0.208611 34.1938C0.422735 32.7187 0.982595 31.2978 1.82846 30.0854C1.99804 29.8429 2.27999 29.7088 2.57157 29.7073C2.86365 29.7047 3.07625 29.6162 3.25342 29.4365C3.44072 29.2476 3.53386 28.994 3.51665 28.7192C3.49792 28.4256 3.62649 28.1421 3.85985 27.9624C5.04336 27.0507 6.37214 26.4412 7.80976 26.1497C8.14739 26.0834 8.48858 26.214 8.69359 26.4868C9.06565 26.9864 9.87608 26.9555 10.2142 26.4478C10.4025 26.1654 10.7407 26.015 11.0727 26.0626C12.5058 26.2641 13.8356 26.7642 15.0252 27.5514C15.3461 27.7629 15.4929 28.1568 15.3886 28.5263C15.2965 28.8584 15.3815 29.1985 15.619 29.4365C15.8624 29.682 16.2234 29.769 16.563 29.6592C16.9285 29.5458 17.3279 29.6749 17.5506 29.9877C18.3727 31.1358 18.9224 32.4129 19.1816 33.7863C19.257 34.1811 19.0556 34.5764 18.6931 34.7496C18.3631 34.9065 18.1576 35.2279 18.1576 35.5878C18.1576 35.9472 18.3631 36.2687 18.6941 36.4266C19.0566 36.5992 19.257 36.9946 19.1821 37.3899C18.9219 38.7612 18.3737 40.0384 17.5511 41.187C17.3279 41.4993 16.929 41.6289 16.5635 41.515C16.2239 41.4061 15.8629 41.4932 15.6195 41.7377C15.3826 41.9756 15.297 42.3158 15.3891 42.6489C15.4929 43.0184 15.3451 43.4127 15.0247 43.6238C13.8346 44.411 12.5048 44.9121 11.0732 45.1126C11.0322 45.1181 10.9907 45.1207 10.9502 45.1207ZM9.43669 42.5385C10.1378 42.5385 10.7994 42.8078 11.296 43.2806C12.1074 43.1176 12.8733 42.8341 13.5855 42.4312C13.5754 41.7129 13.8493 41.0083 14.3651 40.4899C14.9133 39.9382 15.6574 39.6582 16.4157 39.7023C16.8192 39.0498 17.1209 38.3517 17.3168 37.6177C16.7382 37.111 16.3879 36.3709 16.3879 35.5873C16.3879 34.8032 16.7382 34.0626 17.3168 33.5559C17.1209 32.8219 16.8192 32.1239 16.4157 31.4714C15.6584 31.5124 14.9138 31.235 14.3651 30.6837C13.8493 30.1654 13.5754 29.4613 13.5855 28.7424C12.8748 28.3405 12.1079 28.056 11.295 27.8941C10.3372 28.8027 8.69814 28.8513 7.69434 27.9933C6.82924 28.2246 6.01527 28.6043 5.26659 29.1246C5.19218 29.7128 4.92895 30.2621 4.50881 30.6837C4.10992 31.0862 3.60625 31.3453 3.05702 31.4385C2.55841 32.2418 2.20558 33.1419 2.02284 34.0773C2.32454 34.5203 2.48551 35.0432 2.48551 35.5873C2.48551 36.1315 2.32454 36.6534 2.02284 37.0963C2.20558 38.0323 2.55841 38.9313 3.05702 39.7352C3.60625 39.8283 4.10992 40.0885 4.50982 40.4899C4.92895 40.9126 5.19218 41.4628 5.26659 42.0495C6.01628 42.5704 6.83025 42.9496 7.69485 43.1804C8.17827 42.7678 8.78825 42.5385 9.43669 42.5385V42.5385Z" fill="#42403F"/>
<path d="M9.72817 40.0457C7.26903 40.0457 5.26953 38.0462 5.26953 35.5871C5.26953 33.128 7.26903 31.1285 9.72817 31.1285C12.1868 31.1285 14.1868 33.128 14.1868 35.5871C14.1868 38.0462 12.1863 40.0457 9.72817 40.0457ZM9.72817 32.8977C8.24449 32.8977 7.03871 34.1039 7.03871 35.5871C7.03871 37.0703 8.24499 38.2766 9.72817 38.2766C11.2113 38.2766 12.4171 37.0703 12.4171 35.5871C12.4171 34.1039 11.2113 32.8977 9.72817 32.8977V32.8977Z" fill="#42403F"/>
<path d="M42.6445 45.8414C42.3519 45.8414 42.0745 45.6951 41.9085 45.4471C41.6503 45.0593 41.0343 45.034 40.7458 45.4177C40.5408 45.6901 40.2001 45.8171 39.8629 45.7544C38.5833 45.4952 37.4008 44.9525 36.3484 44.1416C36.1155 43.9619 35.9875 43.6784 36.0057 43.3853C36.0138 43.2638 35.9981 43.0295 35.8052 42.8361C35.6696 42.7004 35.4726 42.6285 35.2854 42.6306C34.9811 42.6311 34.7098 42.4944 34.5412 42.2524C33.789 41.1727 33.2904 39.9082 33.0991 38.5961C33.0596 38.3238 33.1482 38.0494 33.3405 37.852C33.4716 37.7169 33.5435 37.5417 33.5435 37.357C33.5435 37.1722 33.4716 36.996 33.3405 36.8614C33.1482 36.6645 33.0596 36.3896 33.0991 36.1173C33.2904 34.8037 33.789 33.5402 34.5412 32.461C34.7098 32.218 34.9791 32.0661 35.2854 32.0828C35.4721 32.0919 35.6696 32.013 35.8072 31.8753C35.9981 31.6834 36.0138 31.4501 36.0057 31.3276C35.9875 31.034 36.1165 30.7505 36.3484 30.5718C37.4028 29.7604 38.5853 29.2177 39.8629 28.959C40.2016 28.8937 40.5418 29.0233 40.7458 29.2962C41.0343 29.6768 41.6514 29.6546 41.9085 29.2668C42.0978 28.9849 42.4339 28.8325 42.767 28.8816C44.0406 29.0603 45.2241 29.5052 46.2831 30.2058C46.604 30.4169 46.7519 30.8112 46.6476 31.1813C46.5772 31.4359 46.6415 31.6951 46.8227 31.8758C47.009 32.0631 47.2829 32.1269 47.5431 32.0469C47.9065 31.931 48.3069 32.0626 48.5302 32.3734C49.2621 33.3939 49.7501 34.5313 49.9824 35.7538C50.0579 36.1492 49.8564 36.5455 49.4935 36.7181C49.2414 36.8381 49.0839 37.0826 49.0839 37.3575C49.0839 37.6313 49.2414 37.8768 49.4945 37.9973C49.8574 38.1704 50.0579 38.5658 49.983 38.9611C49.7506 40.1836 49.2621 41.32 48.5307 42.3405C48.3079 42.6508 47.909 42.7814 47.5446 42.668C47.2844 42.5855 47.008 42.6508 46.8227 42.8381C46.6435 43.0188 46.5772 43.279 46.6481 43.5326C46.7519 43.9027 46.604 44.2975 46.2836 44.5081C45.2252 45.2077 44.0422 45.6536 42.7685 45.8333C42.7265 45.8384 42.685 45.8414 42.6445 45.8414V45.8414ZM41.3142 43.3575C41.9379 43.3575 42.5286 43.5908 42.9801 44.0004C43.6417 43.8622 44.2679 43.6303 44.8521 43.3079C44.8597 42.6701 45.1102 42.0495 45.5679 41.5893C46.0568 41.0988 46.7352 40.8437 47.3866 40.8634C47.7091 40.3329 47.9521 39.7685 48.1171 39.1762C47.6149 38.7121 47.3148 38.053 47.3148 37.357C47.3148 36.6599 47.6154 36.0008 48.1171 35.5366C47.9521 34.9439 47.7086 34.38 47.3871 33.8505C46.7002 33.8758 46.0558 33.6156 45.5679 33.1241C45.1102 32.6644 44.8587 32.0443 44.8521 31.4055C44.2679 31.0826 43.6417 30.8507 42.9801 30.713C42.1115 31.5017 40.6658 31.5437 39.7577 30.8026C39.0449 30.9995 38.3717 31.3129 37.7501 31.7401C37.6736 32.262 37.4347 32.748 37.0601 33.1241C36.7032 33.482 36.2588 33.7168 35.7738 33.8085C35.3628 34.4812 35.0697 35.2294 34.9128 36.0079C35.173 36.4068 35.3127 36.8725 35.3127 37.3575C35.3127 37.8424 35.173 38.3076 34.9128 38.706C35.0692 39.4911 35.3577 40.2281 35.7733 40.9049C36.2588 40.9976 36.7027 41.2314 37.0596 41.5893C37.4347 41.9669 37.6731 42.4529 37.7501 42.9743C38.3717 43.401 39.0439 43.7144 39.7577 43.9113C40.194 43.5544 40.7377 43.3575 41.3142 43.3575V43.3575Z" fill="#42403F"/>
<path d="M41.5688 41.3818C39.3486 41.3818 37.543 39.5761 37.543 37.3564C37.543 35.1362 39.3486 33.3306 41.5688 33.3306C43.7885 33.3306 45.5941 35.1362 45.5941 37.3564C45.5941 39.5761 43.7885 41.3818 41.5688 41.3818V41.3818ZM41.5688 35.1003C40.3251 35.1003 39.3122 36.1127 39.3122 37.3569C39.3122 38.6012 40.3246 39.6131 41.5688 39.6131C42.8131 39.6131 43.825 38.6012 43.825 37.3569C43.825 36.1127 42.8131 35.1003 41.5688 35.1003Z" fill="#42403F"/>
<path d="M30.0802 24.6025C29.5912 24.6025 29.1953 24.2067 29.1953 23.7177V11.3324C29.1953 10.8439 29.5912 10.4481 30.0802 10.4481H33.6185C34.1075 10.4481 34.5034 10.8439 34.5034 11.3324C34.5034 11.8214 34.1075 12.2173 33.6185 12.2173H30.9645V23.7177C30.9645 24.2072 30.5686 24.6025 30.0802 24.6025V24.6025Z" fill="#42403F"/>
<path d="M22.1152 8.67856H5.30672C4.81773 8.67856 4.42188 8.28271 4.42188 7.79422V5.1402C4.42188 4.65121 4.81773 4.25536 5.30672 4.25536H22.1152C22.6037 4.25536 23 4.65121 23 5.1402V7.79422C23 8.28321 22.6037 8.67856 22.1152 8.67856ZM6.19156 6.90938H21.2303V6.02504H6.19156V6.90938Z" fill="#42403F"/>
<path d="M26.5398 29.0259C26.5296 29.0259 26.52 29.0259 26.5099 29.0248L21.2019 28.8436C21.132 28.8416 21.0621 28.8305 20.9943 28.8117L18.8252 28.2063C18.6784 28.1653 18.5453 28.0874 18.438 27.9805C16.1758 25.7239 13.1709 24.4817 9.97681 24.4817C9.06108 24.4817 8.11145 24.5996 7.15523 24.831C7.00843 24.8659 6.85455 24.8628 6.70926 24.8229L5.24482 24.4138C4.81202 24.2944 4.53867 23.8682 4.60852 23.4252L7.0874 7.65701C7.15574 7.22673 7.52628 6.90985 7.96212 6.90985H22.3378C22.7245 6.90985 23.0677 7.16194 23.1826 7.53197L27.3846 21.0527C27.4109 21.1382 27.4246 21.2268 27.4246 21.3154V28.1415C27.4246 28.382 27.3269 28.6108 27.1553 28.7778C26.9888 28.9368 26.7686 29.0259 26.5398 29.0259ZM21.3674 27.0795L25.6549 27.2253V21.449L21.6858 8.67852H8.71889L6.47894 22.9221L6.96591 23.0577C11.6964 21.9917 16.2385 23.3974 19.5197 26.5637L21.3674 27.0795Z" fill="#42403F"/>
<path d="M15.0411 24.6027C14.5521 24.6027 14.1562 24.2068 14.1562 23.7178V7.79419C14.1562 7.3052 14.5521 6.90935 15.0411 6.90935C15.5296 6.90935 15.9259 7.3052 15.9259 7.79419V23.7178C15.9259 24.2073 15.5296 24.6027 15.0411 24.6027Z" fill="#42403F"/>
<path d="M35.1242 33.131C34.8949 33.131 34.6661 33.0429 34.4925 32.8652C32.9952 31.3401 30.3847 29.4347 26.4484 29.0201C25.9615 28.9695 25.6096 28.5337 25.6613 28.0487C25.7124 27.5618 26.1528 27.2079 26.6332 27.2616C31.0918 27.7308 34.0541 29.8938 35.755 31.6271C36.0972 31.9748 36.0921 32.5357 35.7433 32.8779C35.5717 33.0465 35.348 33.131 35.1242 33.131V33.131Z" fill="#42403F"/>
</g>
<defs>
<clipPath id="clip0_93_2219">
<rect width="50" height="50" fill="white"/>
</clipPath>
</defs>
</svg>
