<svg width="50" height="50" viewBox="0 0 50 50" fill="none" xmlns="http://www.w3.org/2000/svg">
<path d="M40.5218 36.2453H17.7421C17.5629 36.2453 17.391 36.1741 17.2643 36.0474C17.1376 35.9207 17.0664 35.7488 17.0664 35.5696C17.0664 35.3904 17.1376 35.2186 17.2643 35.0919C17.391 34.9651 17.5629 34.894 17.7421 34.894H40.5218C40.8298 34.8934 41.1249 34.7708 41.3425 34.5529C41.5602 34.335 41.6825 34.0397 41.6826 33.7318V26.3669C41.6844 25.9742 41.6127 25.5846 41.4712 25.2183C39.6793 20.7109 36.4036 16.0967 31.734 11.5021C31.1343 10.911 30.3267 10.5786 29.4847 10.5764H4.2394C3.83142 10.5771 3.44041 10.7398 3.1523 11.0286C2.86419 11.3175 2.70256 11.709 2.70291 12.1169V33.3568C2.70345 33.7642 2.86548 34.1548 3.15349 34.4429C3.4415 34.731 3.832 34.8932 4.2394 34.894H8.69075C8.86995 34.894 9.04181 34.9651 9.16853 35.0919C9.29524 35.2186 9.36643 35.3904 9.36643 35.5696C9.36643 35.7488 9.29524 35.9207 9.16853 36.0474C9.04181 36.1741 8.86995 36.2453 8.69075 36.2453H4.2394C3.47371 36.2442 2.7397 35.9395 2.19834 35.3981C1.65698 34.8566 1.35246 34.1225 1.35156 33.3568V12.1169C1.35246 11.3512 1.65698 10.6172 2.19834 10.0757C2.7397 9.53419 3.47371 9.2295 4.2394 9.22842H29.4847C30.6799 9.23003 31.8268 9.70072 32.6786 10.5392C37.4847 15.2649 40.8644 20.0359 42.7279 24.7223C42.9321 25.2474 43.036 25.8062 43.034 26.3696V33.7345C43.0327 34.4003 42.7676 35.0384 42.2967 35.509C41.8259 35.9796 41.1876 36.2444 40.5218 36.2453Z" fill="#1B1918"/>
<path d="M42.3594 27.6731H33.6776C33.4984 27.6731 33.3266 27.6019 33.1999 27.4752C33.0731 27.3485 33.002 27.1766 33.002 26.9974C33.002 26.8182 33.0731 26.6464 33.1999 26.5196C33.3266 26.3929 33.4984 26.3217 33.6776 26.3217H42.3594C42.5386 26.3217 42.7105 26.3929 42.8372 26.5196C42.9639 26.6464 43.0351 26.8182 43.0351 26.9974C43.0351 27.1766 42.9639 27.3485 42.8372 27.4752C42.7105 27.6019 42.5386 27.6731 42.3594 27.6731Z" fill="#1B1918"/>
<path d="M23.7326 27.6731H2.02724C1.84804 27.6731 1.67618 27.6019 1.54946 27.4752C1.42275 27.3485 1.35156 27.1766 1.35156 26.9974C1.35156 26.8182 1.42275 26.6464 1.54946 26.5196C1.67618 26.3929 1.84804 26.3217 2.02724 26.3217H23.7326C23.9118 26.3217 24.0837 26.3929 24.2104 26.5196C24.3371 26.6464 24.4083 26.8182 24.4083 26.9974C24.4083 27.1766 24.3371 27.3485 24.2104 27.4752C24.0837 27.6019 23.9118 27.6731 23.7326 27.6731Z" fill="#1B1918"/>
<path d="M10.8248 21.0744H5.7018C5.31465 21.075 4.94311 20.9219 4.66873 20.6487C4.39434 20.3756 4.23953 20.0048 4.23828 19.6177V14.5501C4.23846 14.1619 4.39269 13.7897 4.66709 13.5152C4.9415 13.2407 5.31364 13.0863 5.7018 13.0859H10.8248C11.2129 13.0864 11.5849 13.2409 11.8593 13.5154C12.1336 13.7899 12.2879 14.162 12.2883 14.5501V19.6177C12.2869 20.0047 12.132 20.3755 11.8576 20.6485C11.5833 20.9216 11.2119 21.0748 10.8248 21.0744ZM5.7018 14.4359C5.67204 14.4363 5.64362 14.4483 5.62264 14.4694C5.60166 14.4905 5.58981 14.519 5.58963 14.5487V19.6163C5.58989 19.6307 5.59302 19.6448 5.59883 19.6579C5.60464 19.671 5.61302 19.6828 5.62348 19.6927C5.63393 19.7025 5.64625 19.7101 5.6597 19.7151C5.67315 19.7201 5.68746 19.7223 5.7018 19.7217H10.8248C10.8391 19.7223 10.8534 19.7199 10.8668 19.7149C10.8802 19.7099 10.8925 19.7023 10.9029 19.6925C10.9133 19.6827 10.9217 19.6709 10.9276 19.6578C10.9334 19.6447 10.9366 19.6306 10.9369 19.6163V14.5487C10.9366 14.519 10.9247 14.4906 10.9037 14.4696C10.8828 14.4485 10.8545 14.4364 10.8248 14.4359H5.7018Z" fill="#1B1918"/>
<path d="M20.4341 21.0744H15.3118C14.9246 21.075 14.553 20.9219 14.2785 20.6488C14.004 20.3757 13.8491 20.0049 13.8477 19.6177V14.5501C13.848 14.1619 14.0024 13.7897 14.2769 13.5152C14.5514 13.2406 14.9236 13.0863 15.3118 13.0859H20.4341C20.8224 13.0863 21.1946 13.2406 21.4691 13.5152C21.7436 13.7897 21.898 14.1619 21.8983 14.5501V19.6177C21.8971 20.0049 21.7422 20.3759 21.4676 20.649C21.1931 20.9221 20.8214 21.0751 20.4341 21.0744ZM15.3118 14.4359C15.282 14.4363 15.2535 14.4483 15.2324 14.4693C15.2114 14.4904 15.1994 14.5189 15.199 14.5487V19.6163C15.1994 19.6307 15.2026 19.6449 15.2084 19.658C15.2143 19.6711 15.2228 19.6829 15.2333 19.6927C15.2438 19.7025 15.2562 19.7102 15.2696 19.7151C15.2831 19.7201 15.2975 19.7224 15.3118 19.7217H20.4341C20.4485 19.7224 20.4629 19.7201 20.4763 19.7151C20.4898 19.7102 20.5022 19.7025 20.5127 19.6927C20.5232 19.6829 20.5317 19.6711 20.5375 19.658C20.5434 19.6449 20.5466 19.6307 20.547 19.6163V14.5487C20.5466 14.5189 20.5346 14.4904 20.5135 14.4693C20.4925 14.4483 20.464 14.4363 20.4341 14.4359H15.3118Z" fill="#1B1918"/>
<path d="M33.6757 36.2427H23.7284C23.5492 36.2427 23.3773 36.1715 23.2506 36.0448C23.1239 35.918 23.0527 35.7462 23.0527 35.567V22.1967C23.0533 21.6637 23.2652 21.1528 23.6421 20.7759C24.0189 20.3991 24.5299 20.1871 25.0629 20.1866H32.3412C32.8742 20.1871 33.3852 20.3991 33.762 20.7759C34.1389 21.1528 34.3508 21.6637 34.3514 22.1967V35.567C34.3514 35.7462 34.2802 35.918 34.1535 36.0448C34.0268 36.1715 33.8549 36.2427 33.6757 36.2427ZM24.4041 34.8913H33V22.1967C32.9998 22.022 32.9304 21.8546 32.8069 21.7311C32.6834 21.6076 32.5159 21.5381 32.3412 21.5379H25.0629C24.8882 21.5381 24.7207 21.6076 24.5972 21.7311C24.4737 21.8546 24.4043 22.022 24.4041 22.1967V34.8913Z" fill="#1B1918"/>
<path d="M13.2164 40.7715C12.1874 40.7715 11.1815 40.4664 10.3259 39.8947C9.47033 39.323 8.80349 38.5105 8.40971 37.5598C8.01593 36.6091 7.9129 35.5631 8.11364 34.5538C8.31439 33.5446 8.8099 32.6176 9.53751 31.89C10.2651 31.1623 11.1922 30.6668 12.2014 30.4661C13.2106 30.2653 14.2567 30.3684 15.2074 30.7622C16.158 31.1559 16.9706 31.8228 17.5423 32.6784C18.1139 33.5339 18.4191 34.5398 18.4191 35.5688C18.4169 36.948 17.8681 38.2701 16.8929 39.2453C15.9176 40.2206 14.5956 40.7694 13.2164 40.7715ZM13.2164 31.7175C12.4547 31.7175 11.71 31.9434 11.0767 32.3665C10.4433 32.7897 9.94969 33.3912 9.65819 34.095C9.36669 34.7987 9.29042 35.5731 9.43903 36.3202C9.58763 37.0673 9.95444 37.7535 10.4931 38.2921C11.0317 38.8308 11.7179 39.1976 12.465 39.3462C13.2121 39.4948 13.9865 39.4185 14.6902 39.127C15.394 38.8355 15.9955 38.3419 16.4187 37.7085C16.8419 37.0752 17.0677 36.3306 17.0677 35.5688C17.067 34.5473 16.6611 33.5678 15.9391 32.8451C15.2171 32.1225 14.2379 31.7157 13.2164 31.7141V31.7175Z" fill="#1B1918"/>
<path d="M13.2165 38.2911C12.6777 38.2911 12.151 38.1313 11.703 37.8319C11.2549 37.5326 10.9058 37.1071 10.6996 36.6093C10.4934 36.1115 10.4394 35.5637 10.5445 35.0353C10.6497 34.5068 10.9091 34.0214 11.2901 33.6404C11.6711 33.2594 12.1566 32.9999 12.685 32.8948C13.2135 32.7897 13.7613 32.8436 14.2591 33.0498C14.7569 33.256 15.1824 33.6052 15.4817 34.0532C15.7811 34.5012 15.9408 35.0279 15.9408 35.5668C15.9399 36.289 15.6526 36.9814 15.1419 37.4922C14.6312 38.0029 13.9388 38.2902 13.2165 38.2911ZM13.2165 34.1938C12.945 34.1938 12.6795 34.2743 12.4537 34.4252C12.2279 34.576 12.052 34.7905 11.9481 35.0413C11.8441 35.2922 11.8169 35.5683 11.8699 35.8346C11.9229 36.1009 12.0537 36.3456 12.2457 36.5376C12.4377 36.7296 12.6823 36.8604 12.9487 36.9133C13.215 36.9663 13.491 36.9391 13.7419 36.8352C13.9928 36.7313 14.2072 36.5553 14.3581 36.3295C14.509 36.1038 14.5895 35.8383 14.5895 35.5668C14.5891 35.2027 14.4444 34.8537 14.187 34.5963C13.9295 34.3389 13.5805 34.1941 13.2165 34.1938Z" fill="#1B1918"/>
<path d="M45.8161 32.1452H42.3573C42.1781 32.1452 42.0063 32.074 41.8795 31.9473C41.7528 31.8206 41.6816 31.6487 41.6816 31.4695C41.6816 31.2903 41.7528 31.1185 41.8795 30.9918C42.0063 30.865 42.1781 30.7939 42.3573 30.7939H45.8161C46.2087 30.7933 46.585 30.6371 46.8626 30.3594C47.1401 30.0818 47.2961 29.7054 47.2965 29.3128C47.2965 29.1336 47.3677 28.9617 47.4944 28.835C47.6211 28.7083 47.793 28.6371 47.9722 28.6371C48.1514 28.6371 48.3232 28.7083 48.45 28.835C48.5767 28.9617 48.6479 29.1336 48.6479 29.3128C48.6464 30.0634 48.3476 30.7829 47.8169 31.3138C47.2862 31.8447 46.5668 32.1436 45.8161 32.1452Z" fill="#1B1918"/>
<path d="M23.7457 10.5798H12.6112C12.432 10.5798 12.2602 10.5086 12.1334 10.3819C12.0067 10.2552 11.9355 10.0834 11.9355 9.90415V7.51699C11.9363 6.93481 12.1678 6.37668 12.5795 5.96501C12.9912 5.55335 13.5493 5.32176 14.1315 5.32104H22.2281C22.8103 5.32176 23.3684 5.55335 23.7801 5.96501C24.1918 6.37668 24.4234 6.93481 24.4241 7.51699V9.90415C24.4241 9.99311 24.4065 10.0812 24.3724 10.1633C24.3383 10.2455 24.2882 10.3201 24.2252 10.3829C24.1622 10.4457 24.0874 10.4954 24.0051 10.5292C23.9228 10.563 23.8346 10.5802 23.7457 10.5798ZM13.2869 9.22848H23.07V7.51699C23.0698 7.29304 22.9808 7.07832 22.8224 6.91997C22.6641 6.76162 22.4494 6.67257 22.2254 6.6724H14.1315C13.9076 6.67275 13.693 6.76185 13.5347 6.92017C13.3764 7.07848 13.2873 7.2931 13.2869 7.51699V9.22848Z" fill="#1B1918"/>
</svg>
