<svg width="50" height="50" viewBox="0 0 50 50" fill="none" xmlns="http://www.w3.org/2000/svg">
<path d="M9.35156 33.6614H9.34365C8.93916 33.6614 8.61523 33.9894 8.61523 34.3939C8.61523 34.7984 8.94707 35.1263 9.35156 35.1263C9.75606 35.1263 10.084 34.7984 10.084 34.3939C10.084 33.9894 9.75606 33.6614 9.35156 33.6614Z" fill="#42403F"/>
<path d="M15.6133 33.6614H15.6055C15.201 33.6614 14.877 33.9894 14.877 34.3939C14.877 34.7984 15.2088 35.1263 15.6133 35.1263C16.0178 35.1263 16.3457 34.7984 16.3457 34.3939C16.3457 33.9894 16.0178 33.6614 15.6133 33.6614Z" fill="#42403F"/>
<path d="M41.4473 33.6614H41.4395C41.035 33.6614 40.7109 33.9894 40.7109 34.3939C40.7109 34.7984 41.0428 35.1263 41.4473 35.1263C41.8518 35.1263 42.1797 34.7984 42.1797 34.3939C42.1797 33.9894 41.8518 33.6614 41.4473 33.6614Z" fill="#42403F"/>
<path d="M49.327 24.8062L48.3422 23.8215L46.3583 17.8697C46.6543 17.7757 46.8688 17.4988 46.8688 17.1718C46.8688 16.7673 46.5409 16.4393 46.1364 16.4393H39.0406V13.2579C39.0406 12.4223 38.3609 11.7426 37.5254 11.7426H1.51524C0.679689 11.7426 0 12.4224 0 13.2579V30.48C0 31.3155 0.679689 31.9952 1.51524 31.9952H2.34844V33.6109C2.34844 34.4464 3.02813 35.1261 3.86368 35.1261H5.5503C5.89366 36.9073 7.46349 38.2573 9.34348 38.2573C10.6308 38.2573 11.7723 37.6239 12.4747 36.653C13.1773 37.6239 14.3188 38.2573 15.6061 38.2573C17.4861 38.2573 19.056 36.9073 19.3993 35.1261H37.6462C37.9895 36.9073 39.5594 38.2573 41.4393 38.2573C43.5698 38.2573 45.303 36.524 45.303 34.3937C45.303 34.3769 45.3019 34.3604 45.3018 34.3437H48.4848C49.3203 34.3437 50 33.664 50 32.8284V26.4312C50.0001 25.8174 49.761 25.2403 49.327 24.8062ZM5.5503 33.6613H3.86368C3.83585 33.6613 3.81329 33.6388 3.81329 33.611V31.9953H6.31769C5.93878 32.4725 5.66993 33.0404 5.5503 33.6613ZM9.34348 36.7927C8.02072 36.7927 6.94464 35.7165 6.94464 34.3939C6.94464 33.0762 8.01271 32.0035 9.32853 31.9953H9.35861C10.6744 32.0034 11.7425 33.0761 11.7425 34.3939C11.7424 35.7165 10.6662 36.7927 9.34348 36.7927ZM15.6062 36.7927C14.2834 36.7927 13.2073 35.7165 13.2073 34.3939C13.2073 33.0762 14.2753 32.0035 15.5911 31.9953H15.6212C16.937 32.0034 18.0051 33.0761 18.0051 34.3939C18.005 35.7165 16.9289 36.7927 15.6062 36.7927ZM37.6463 33.6613H19.3994C19.2797 33.0404 19.0109 32.4724 18.6319 31.9952H32.8283C33.2328 31.9952 33.5607 31.6673 33.5607 31.2628C33.5607 30.8583 33.2328 30.5304 32.8283 30.5304H1.51524C1.48741 30.5304 1.46485 30.5078 1.46485 30.48V13.2579C1.46485 13.2301 1.48741 13.2075 1.51524 13.2075H37.5253C37.5531 13.2075 37.5757 13.2301 37.5757 13.2579V30.5305H35.9599C35.5554 30.5305 35.2275 30.8584 35.2275 31.2629C35.2275 31.6674 35.5554 31.9953 35.9599 31.9953H38.4137C38.0346 32.4725 37.7659 33.0404 37.6463 33.6613ZM46.9468 24.2675H42.2223C42.1944 24.2675 42.1719 24.2449 42.1719 24.2171V21.0353H45.8694L46.9468 24.2675ZM41.4394 36.7927C40.1167 36.7927 39.0406 35.7165 39.0406 34.3939C39.0406 33.0762 40.1087 32.0035 41.4245 31.9953H41.4395C41.4412 31.9953 41.4429 31.9951 41.4446 31.995C42.765 31.9978 43.8385 33.0728 43.8385 34.3938C43.8383 35.7165 42.7622 36.7927 41.4394 36.7927ZM48.5353 32.8286C48.5353 32.8565 48.5127 32.879 48.4849 32.879H44.9934C44.4031 31.4994 43.0325 30.5302 41.4394 30.5302C41.4344 30.5302 41.4295 30.5306 41.4244 30.5306H39.0406V17.9549V17.9545C39.0406 17.9266 39.0632 17.9041 39.091 17.9041H44.8257L45.3811 19.5705H41.4394C41.0349 19.5705 40.707 19.8984 40.707 20.3029V24.2171C40.707 25.0526 41.3867 25.7323 42.2223 25.7323H48.1814L48.2912 25.8421C48.4485 25.9995 48.5353 26.2087 48.5353 26.4313V28.182H47.702C47.2976 28.182 46.9696 28.51 46.9696 28.9145C46.9696 29.319 47.2976 29.6469 47.702 29.6469H48.5353V32.8286Z" fill="#42403F"/>
<path d="M35.1783 27.3992H3.86524C3.46074 27.3992 3.13281 27.7271 3.13281 28.1316C3.13281 28.5361 3.46074 28.8641 3.86524 28.8641H35.1783C35.5828 28.8641 35.9107 28.5361 35.9107 28.1316C35.9107 27.7271 35.5828 27.3992 35.1783 27.3992Z" fill="#42403F"/>
</svg>
